<?xml version="1.0" encoding="UTF-8"?>
<svg xmlns="http://www.w3.org/2000/svg" viewBox="0 0 225 225" width="225" height="225" shape-rendering="geometricPrecision">
  <rect width="225" height="225" rx="34.51" ry="34.51" fill="#000"/>
  <path fill="#fff" d="M150.26,187.01c-.63,1.82-2.33,2.96-4.15,2.96-.48,0-.96-.08-1.44-.24-2.29-.8-3.51-3.3-2.71-5.59l33.93-97.89c.8-2.29,3.3-3.51,5.59-2.71,2.29.79,3.51,3.3,2.71,5.59l-16.08,46.37c6.71-3.09,14.23-3.47,21.23-1.05,14.85,5.12,22.77,21.35,17.7,36.21l-4.93,16.23c-.58,1.9-2.32,3.12-4.2,3.12-.42,0-.85-.06-1.28-.19-2.32-.71-3.63-3.16-2.93-5.48l4.95-16.31c.02-.05.03-.1.05-.16,3.55-10.29-1.93-21.56-12.23-25.11-4.99-1.72-10.35-1.4-15.09.91-4.74,2.31-8.3,6.33-10.02,11.32l-11.11,32.03ZM123.09,185.57c0-2.43-1.97-4.39-4.39-4.39h-24.15c-10.89,0-19.75-8.86-19.75-19.75s8.86-19.75,19.75-19.75h24.15c2.43,0,4.39-1.97,4.39-4.39s-1.97-4.39-4.39-4.39h-24.15c-15.74,0-28.54,12.8-28.54,28.54s12.8,28.54,28.54,28.54h24.15c2.43,0,4.39-1.97,4.39-4.39ZM24.97,186.98L68.49,58.73c3.03-8.94,11.41-14.94,20.85-14.94h78.96c2.43,0,4.39-1.97,4.39-4.39s-1.97-4.39-4.39-4.39h-78.96c-13.21,0-24.93,8.4-29.17,20.91L16.65,184.16c-.78,2.3.45,4.79,2.75,5.57.47.16.94.23,1.41.23,1.83,0,3.54-1.15,4.16-2.98ZM142.67,87.68c0-2.43-1.97-4.39-4.39-4.39h-48.29c-2.43,0-4.39,1.97-4.39,4.39s1.97,4.39,4.39,4.39h48.29c2.43,0,4.39-1.97,4.39-4.39Z"/>
</svg>
